<svg xmlns="http://www.w3.org/2000/svg" viewBox="0 0 375 448" width="375" height="448" preserveAspectRatio="xMidYMid meet" style="width: 100%; height: 100%; transform: translate3d(0px, 0px, 0px);"><defs><clipPath id="__lottie_element_897"><rect width="375" height="448" x="0" y="0"></rect></clipPath><filter id="__lottie_element_909" filterUnits="objectBoundingBox" x="0%" y="0%" width="100%" height="100%"><feGaussianBlur in="SourceAlpha" result="drop_shadow_1" stdDeviation="0"></feGaussianBlur><feOffset dx="0.5229344564859488" dy="5.977168188550474" in="drop_shadow_1" result="drop_shadow_2"></feOffset><feFlood flood-color="#340496" flood-opacity="0.24509803921568626" result="drop_shadow_3"></feFlood><feComposite in="drop_shadow_3" in2="drop_shadow_2" operator="in" result="drop_shadow_4"></feComposite><feMerge><feMergeNode></feMergeNode><feMergeNode in="SourceGraphic"></feMergeNode></feMerge></filter><clipPath id="__lottie_element_1043"><path fill="#ffffff" clip-rule="nonzero" d=" M5.5320000648498535,-35.32600021362305 C5.5320000648498535,-35.32600021362305 5.5320000648498535,-23.64900016784668 5.5320000648498535,-23.64900016784668 C5.5320000648498535,-23.64900016784668 5.5320000648498535,74.3010025024414 5.5320000648498535,74.3010025024414 C5.5320000648498535,74.3010025024414 132.19000244140625,74.3010025024414 132.19000244140625,74.3010025024414 C132.19000244140625,74.3010025024414 149.56300354003906,-11.168999671936035 149.56300354003906,-11.168999671936035 C149.56300354003906,-11.168999671936035 125.69000244140625,-25.576000213623047 125.69000244140625,-25.576000213623047 C125.69000244140625,-25.576000213623047 101.75,-35.32600021362305 101.75,-35.32600021362305 C101.75,-35.32600021362305 67.75,-42.57600021362305 67.75,-42.57600021362305 C67.75,-42.57600021362305 29.5,-41.57600021362305 29.5,-41.57600021362305 C29.5,-41.57600021362305 5.5320000648498535,-35.32600021362305 5.5320000648498535,-35.32600021362305" fill-opacity="1"></path></clipPath><clipPath id="__lottie_element_1046"><path fill="#ffffff" clip-rule="nonzero" d=" M49.762001037597656,-37.47200012207031 C49.762001037597656,-37.47200012207031 24.908000946044922,-35.56800079345703 24.908000946044922,-35.56800079345703 C24.908000946044922,-35.56800079345703 18.115999221801758,152.7689971923828 18.115999221801758,152.7689971923828 C18.115999221801758,152.7689971923828 132.9770050048828,139.70599365234375 132.9770050048828,139.70599365234375 C132.9770050048828,139.70599365234375 140.96099853515625,-12.821999549865723 140.96099853515625,-12.821999549865723 C140.96099853515625,-12.821999549865723 121.63200378417969,-23.225000381469727 121.63200378417969,-23.225000381469727 C121.63200378417969,-23.225000381469727 105.99199676513672,-29.49799919128418 105.99199676513672,-29.49799919128418 C105.99199676513672,-29.49799919128418 72.91600036621094,-36.53900146484375 72.91600036621094,-36.53900146484375 C72.91600036621094,-36.53900146484375 49.762001037597656,-37.47200012207031 49.762001037597656,-37.47200012207031" fill-opacity="1"></path></clipPath><clipPath id="__lottie_element_1049"><path fill="#ffffff" clip-rule="nonzero" d=" M-83.5999984741211,20.007999420166016 C-83.5999984741211,20.007999420166016 -92.19499969482422,146.45899963378906 -92.19499969482422,146.45899963378906 C-92.19499969482422,146.45899963378906 166.86000061035156,162.0800018310547 166.86000061035156,162.0800018310547 C166.86000061035156,162.0800018310547 173.50599670410156,16.451000213623047 173.50599670410156,16.451000213623047 C173.50599670410156,16.451000213623047 150.97500610351562,-6.355999946594238 150.97500610351562,-6.355999946594238 C150.97500610351562,-6.355999946594238 117.55899810791016,-27.673999786376953 117.55899810791016,-27.673999786376953 C117.55899810791016,-27.673999786376953 84.07099914550781,-38.53300094604492 84.07099914550781,-38.53300094604492 C84.07099914550781,-38.53300094604492 61.082000732421875,-42.54100036621094 61.082000732421875,-42.54100036621094 C61.082000732421875,-42.54100036621094 39.17399978637695,-43.25299835205078 39.17399978637695,-43.25299835205078 C39.17399978637695,-43.25299835205078 5.901000022888184,-38.41899871826172 5.901000022888184,-38.41899871826172 C5.901000022888184,-38.41899871826172 -29.26300048828125,-24.56800079345703 -29.26300048828125,-24.56800079345703 C-29.26300048828125,-24.56800079345703 -58.44900131225586,-6.7789998054504395 -58.44900131225586,-6.7789998054504395 C-58.44900131225586,-6.7789998054504395 -83.5999984741211,20.007999420166016 -83.5999984741211,20.007999420166016" fill-opacity="1"></path></clipPath></defs><g clip-path="url(#__lottie_element_897)"><g transform="matrix(0.6800000071525574,0,0,0.6800000071525574,188.16000366210938,224.36000061035156)" opacity="1" style="display: block;"><g opacity="1" transform="matrix(1,0,0,1,0,48)"><path fill="rgb(122,134,165)" fill-opacity="1" d=" M0,-245.5 C135.491455078125,-245.5 245.5,-135.491455078125 245.5,0 C245.5,135.491455078125 135.491455078125,245.5 0,245.5 C-135.491455078125,245.5 -245.5,135.491455078125 -245.5,0 C-245.5,-135.491455078125 -135.491455078125,-245.5 0,-245.5z"></path></g></g><g transform="matrix(0.6800000071525574,0,0,0.6800000071525574,188.16000366210938,224.36000061035156)" opacity="1" style="display: block;"><g opacity="1" transform="matrix(1,0,0,1,0,48)"><path fill="rgb(49,21,93)" fill-opacity="1" d=" M0,-245.5 C135.491455078125,-245.5 245.5,-135.491455078125 245.5,0 C245.5,135.491455078125 135.491455078125,245.5 0,245.5 C-135.491455078125,245.5 -245.5,135.491455078125 -245.5,0 C-245.5,-135.491455078125 -135.491455078125,-245.5 0,-245.5z"></path></g></g><g transform="matrix(0.5099999904632568,0,0,0.5099999904632568,188.24501037597656,232.52000427246094)" opacity="1" style="display: block;"><g opacity="1" transform="matrix(1,0,0,1,0,48)"><path fill="rgb(64,35,108)" fill-opacity="1" d=" M0,-245.5 C135.491455078125,-245.5 245.5,-135.491455078125 245.5,0 C245.5,135.491455078125 135.491455078125,245.5 0,245.5 C-135.491455078125,245.5 -245.5,135.491455078125 -245.5,0 C-245.5,-135.491455078125 -135.491455078125,-245.5 0,-245.5z"></path></g></g><g transform="matrix(0.35000279545783997,0,0,0.35000279545783997,188.3249969482422,240.19985961914062)" opacity="1" style="display: block;"><g opacity="1" transform="matrix(1,0,0,1,0,48)"><path fill="rgb(79,47,130)" fill-opacity="1" d=" M0,-245.5 C135.491455078125,-245.5 245.5,-135.491455078125 245.5,0 C245.5,135.491455078125 135.491455078125,245.5 0,245.5 C-135.491455078125,245.5 -245.5,135.491455078125 -245.5,0 C-245.5,-135.491455078125 -135.491455078125,-245.5 0,-245.5z"></path></g></g><g transform="matrix(0.003868664847686887,0.0007519922801293433,-0.0007519922801293433,0.003868664847686887,185.9874267578125,328.2839660644531)" opacity="1" style="display: block;"><g opacity="1" transform="matrix(1,0,0,1,-24.145000457763672,10.694999694824219)"><path fill="rgb(63,170,53)" fill-opacity="1" d=" M120.25,27.75 C120.25,27.75 94.75,29.25 87,46.25 C79.25,63.25 82,77 82,77 C82,77 106.25,73 114.5,59.75 C122.75,46.5 120.25,27.75 120.25,27.75z"></path></g></g><g transform="matrix(0,0,0,0,190,336)" opacity="1" style="display: block;"><g opacity="1" transform="matrix(1,0,0,1,-24.145000457763672,10.694999694824219)"><path fill="rgb(63,170,53)" fill-opacity="1" d=" M120.25,27.75 C120.25,27.75 94.75,29.25 87,46.25 C81.43699645996094,58.452999114990234 81.28399658203125,68.98100280761719 81.64099884033203,73.95099639892578 C81.78099822998047,75.90499877929688 82,77 82,77 C82,77 84.89900207519531,76.59400177001953 88.4800033569336,75.62699890136719 C96.21600341796875,73.53700256347656 108.86100006103516,68.80699920654297 114.5,59.75 C122.75,46.5 120.25,27.75 120.25,27.75z"></path></g></g><g transform="matrix(1,0,0,1,188,268.8088684082031)" opacity="1" style="display: block;"><g opacity="1" transform="matrix(1,0,0,1,0,0)"><path stroke-linecap="butt" stroke-linejoin="miter" fill-opacity="0" stroke-miterlimit="4" stroke="rgb(63,170,53)" stroke-opacity="1" stroke-width="12" d=" M4.107619285583496,14.556095123291016 C4.107619285583496,14.556095123291016 -0.24535147845745087,42.49333190917969 -2.9210710525512695,73.1854476928711 C-5.633296966552734,104.37067413330078 -6.730762004852295,138.17237854003906 -1.6117619276046753,150.54737854003906"></path></g></g><g transform="matrix(0.12092860043048859,-1.3822201490402222,1.3822201490402222,0.12092860043048859,119.52936553955078,258.3552551269531)" opacity="1" style="display: block;"><g opacity="1" transform="matrix(1,0,0,1,0,0)"><path fill="rgb(63,170,53)" fill-opacity="1" d=" M26.47800064086914,54.779998779296875 C26.108999252319336,50.165000915527344 13.559000015258789,39.45600128173828 -4.114999771118164,38.792999267578125 C-14.090999603271484,38.41899871826172 -16.461000442504883,47.82699966430664 -30.211000442504883,48.08399963378906 C-48.895999908447266,48.433998107910156 -27.12299919128418,62.071998596191406 -22.950000762939453,64.2229995727539 C-16.20800018310547,67.6989974975586 -10.805000305175781,70.55000305175781 -1.7929999828338623,70.62200164794922 C11.777999877929688,70.7300033569336 26.84600067138672,59.37300109863281 26.47800064086914,54.779998779296875z"></path></g></g><g transform="matrix(1,0,0,1,168,249)" opacity="1" style="display: block;"><g opacity="1" transform="matrix(1,0,0,1,-28.94099998474121,-69.3239974975586)"><path fill="rgb(255,255,255)" fill-opacity="1" d=" M51.5,183 C44.5,183 39.5,197.25 39.5,210 C39.5,222.75 45.25,232.25 51.25,232.25 C57.25,232.25 62.75,222.25 62.75,210.75 C62.75,199.25 58.5,183 51.5,183z"></path></g></g><g transform="matrix(1.0000011920928955,0,0,1.0000011920928955,188,168.99984741210938)" opacity="1" style="display: block;"><g opacity="1" transform="matrix(1,0,0,1,0,0)"><path fill="rgb(146,157,188)" fill-opacity="1" d=" M-12,170.5 C-12,170.5 -143.5,178 -143.5,178 C-143.5,178 -99,256 0.5,256 C100,256 144.5,174.5 144.5,174.5 C144.5,174.5 -12,170.5 -12,170.5z"></path></g><g opacity="1" transform="matrix(1,0,0,1,-0.6330000162124634,174.04600524902344)"><path fill="rgb(175,184,209)" fill-opacity="1" d=" M163.86700439453125,0 C163.86700439453125,0 163.86700439453125,0 163.86700439453125,0 C163.86700439453125,4.440587043762207 160.2615966796875,8.045999526977539 155.8209991455078,8.045999526977539 C155.8209991455078,8.045999526977539 -155.8209991455078,8.045999526977539 -155.8209991455078,8.045999526977539 C-160.2615966796875,8.045999526977539 -163.86700439453125,4.440587043762207 -163.86700439453125,0 C-163.86700439453125,0 -163.86700439453125,0 -163.86700439453125,0 C-163.86700439453125,-4.440587043762207 -160.2615966796875,-8.045999526977539 -155.8209991455078,-8.045999526977539 C-155.8209991455078,-8.045999526977539 155.8209991455078,-8.045999526977539 155.8209991455078,-8.045999526977539 C160.2615966796875,-8.045999526977539 163.86700439453125,-4.440587043762207 163.86700439453125,0z"></path></g><g opacity="1" transform="matrix(1,0,0,1,4.788000106811523,213.28799438476562)"><path fill="rgb(63,170,53)" fill-opacity="1" d=" M-3,-33.788002014160156 C11.232397079467773,-33.788002014160156 22.788000106811523,-22.232397079467773 22.788000106811523,-8 C22.788000106811523,6.232397079467773 11.232397079467773,17.788000106811523 -3,17.788000106811523 C-17.232397079467773,17.788000106811523 -28.788000106811523,6.232397079467773 -28.788000106811523,-8 C-28.788000106811523,-22.232397079467773 -17.232397079467773,-33.788002014160156 -3,-33.788002014160156z"></path><path stroke-linecap="butt" stroke-linejoin="miter" fill-opacity="0" stroke-miterlimit="4" stroke="rgb(212,220,241)" stroke-opacity="1" stroke-width="10" d=" M-3,-33.788002014160156 C11.232397079467773,-33.788002014160156 22.788000106811523,-22.232397079467773 22.788000106811523,-8 C22.788000106811523,6.232397079467773 11.232397079467773,17.788000106811523 -3,17.788000106811523 C-17.232397079467773,17.788000106811523 -28.788000106811523,6.232397079467773 -28.788000106811523,-8 C-28.788000106811523,-22.232397079467773 -17.232397079467773,-33.788002014160156 -3,-33.788002014160156z"></path></g><g opacity="1" transform="matrix(1,0,0,1,2.1510000228881836,199.48199462890625)"><path fill="rgb(255,255,255)" fill-opacity="0.3" d=" M0,-13.017499923706055 C6.539187431335449,-13.017499923706055 11.84850025177002,-8.976758003234863 11.84850025177002,-4 C11.84850025177002,0.9767581820487976 6.539187431335449,5.017499923706055 0,5.017499923706055 C-6.539187431335449,5.017499923706055 -11.84850025177002,0.9767581820487976 -11.84850025177002,-4 C-11.84850025177002,-8.976758003234863 -6.539187431335449,-13.017499923706055 0,-13.017499923706055z"></path></g></g><g clip-path="url(#__lottie_element_1049)" transform="matrix(0.9905478358268738,-0.13716794550418854,0.13716794550418854,0.9905478358268738,132.21221923828125,145.579833984375)" opacity="1" style="display: none;"><g opacity="1" transform="matrix(1,0,0,1,0,0)"><path fill="rgb(220,225,240)" fill-opacity="1" d=" M24,-25.5 C-10.005999565124512,-13.168000221252441 -53.766998291015625,10.303000450134277 -70.06800079345703,20.378999710083008 C-73.5,22.5 -72.54000091552734,31.384000778198242 -67,36 C-64,38.5 -57.54100036621094,41.597999572753906 -50.465999603271484,39.62099838256836 C-30.63599967956543,34.08000183105469 -19.5,28.5 -19.5,28.5 C-19.5,28.5 -66.28800201416016,73.69599914550781 -70.89399719238281,77.5979995727539 C-75.5,81.5 -75.86399841308594,85.64299774169922 -75.86399841308594,85.64299774169922 C-75.86399841308594,85.64299774169922 -76.95700073242188,95.35199737548828 -71,98 C-66.5,100 -59.698001861572266,102.14900207519531 -49.5,94.5 C-37.5,85.5 -13.515999794006348,66.48200225830078 -13.515999794006348,66.48200225830078 C-13.515999794006348,66.48200225830078 -22,86.5 -13.5,103 C-11.49899959564209,106.88400268554688 -9.397000312805176,110.77400207519531 -7.353000164031982,114.45099639892578 C-0.7120000123977661,126.39600372314453 5.323999881744385,136.1020050048828 5.323999881744385,136.1020050048828 C5.323999881744385,136.1020050048828 13.824000358581543,145.08399963378906 22.323999404907227,139.08399963378906 C30.823999404907227,133.08399963378906 31.375,121.35700225830078 27.788000106811523,114.6709976196289 C21.28499984741211,102.5479965209961 10,84.5 23.5,70 C37,55.5 61,52 72,63.5 C89.15899658203125,81.43900299072266 143,21 119.5,-8 C96,-37 69.5,-42 24,-25.5z"></path></g><g opacity="1" transform="matrix(1,0,0,1,0,0)"><path fill="rgb(169,179,209)" fill-opacity="1" d=" M7.0929999351501465,1.9110000133514404 C7.0929999351501465,1.9110000133514404 -47.47999954223633,38.77399826049805 -47.47999954223633,38.77399826049805 C-47.47999954223633,38.77399826049805 -19.839000701904297,28.719999313354492 -19.839000701904297,28.719999313354492 C-19.839000701904297,28.719999313354492 7.0929999351501465,1.9110000133514404 7.0929999351501465,1.9110000133514404z"></path></g><g opacity="1" transform="matrix(1,0,0,1,0,0)"><path fill="rgb(169,179,209)" fill-opacity="1" d=" M-4.638000011444092,44.70600128173828 C-4.638000011444092,44.70600128173828 -48.79899978637695,93.86399841308594 -48.79899978637695,93.86399841308594 C-48.79899978637695,93.86399841308594 -13.104000091552734,65.74400329589844 -13.104000091552734,65.74400329589844 C-13.104000091552734,65.74400329589844 -4.638000011444092,44.70600128173828 -4.638000011444092,44.70600128173828z"></path></g><g opacity="1" transform="matrix(1,0,0,1,0,0)"><path fill="rgb(169,180,210)" fill-opacity="1" d=" M34.33599853515625,47.58000183105469 C33.24300003051758,48.18600082397461 17.785999298095703,63.207000732421875 17.785999298095703,63.207000732421875 C17.785999298095703,63.207000732421875 4.328999996185303,91.125 6.949999809265137,92.24500274658203 C9.571000099182129,93.36499786376953 20.417999267578125,107.99099731445312 20.417999267578125,107.99099731445312 C20.417999267578125,107.99099731445312 24.677000045776367,111.86199951171875 24.677000045776367,111.86199951171875 C24.677000045776367,111.86199951171875 22.80500030517578,107.76000213623047 20.45599937438965,100.42500305175781 C18.341999053955078,93.822998046875 12.972000122070312,87.58100128173828 21.263999938964844,74.54100036621094 C31.589000701904297,58.30400085449219 53.922000885009766,55.59199905395508 53.922000885009766,55.59199905395508 C53.922000885009766,55.59199905395508 35.42900085449219,46.9739990234375 34.33599853515625,47.58000183105469z"></path></g><g opacity="1" transform="matrix(1,0,0,1,0,0)"><path fill="rgb(169,180,210)" fill-opacity="1" d="M0 0"></path></g><g opacity="1" transform="matrix(1,0,0,1,0,0)"><path fill="rgb(255,255,255)" fill-opacity="1" d=" M15.26099967956543,-22.448999404907227 C15.26099967956543,-22.448999404907227 -27.138999938964844,-2.61299991607666 -27.138999938964844,-2.61299991607666 C-27.138999938964844,-2.61299991607666 -57.3120002746582,13.182999610900879 -57.3120002746582,13.182999610900879 C-57.3120002746582,13.182999610900879 -73.85800170898438,21.492000579833984 -66.3949966430664,22.273000717163086 C-58.93199920654297,23.054000854492188 -25.993000030517578,1.5809999704360962 -11.78499984741211,-5.750999927520752 C4.795000076293945,-14.307999610900879 15.26099967956543,-22.448999404907227 15.26099967956543,-22.448999404907227z"></path></g><g opacity="1" transform="matrix(1,0,0,1,0,0)"><path fill="rgb(255,255,255)" fill-opacity="1" d=" M-7.936999797821045,17.496999740600586 C-7.936999797821045,17.496999740600586 -30.167999267578125,39.4640007019043 -40.611000061035156,49.316001892089844 C-53.67499923706055,61.64099884033203 -68.18299865722656,75.27899932861328 -70.25900268554688,77.51499938964844 C-72.33499908447266,79.7509994506836 -69.00900268554688,82.56999969482422 -63.119998931884766,76.98999786376953 C-56.14799880981445,70.38400268554688 -7.936999797821045,17.496999740600586 -7.936999797821045,17.496999740600586z"></path></g><g opacity="1" transform="matrix(1,0,0,1,0,0)"><path fill="rgb(255,255,255)" fill-opacity="1" d=" M7.632999897003174,28.990999221801758 C7.632999897003174,28.990999221801758 -4.604000091552734,44.45899963378906 -4.604000091552734,44.45899963378906 C-4.604000091552734,44.45899963378906 -10.350000381469727,56.7869987487793 -13.317999839782715,65.46199798583984 C-16.285999298095703,74.13700103759766 -17.264999389648438,84.85399627685547 -17.010000228881836,86.65599822998047 C-16.7549991607666,88.45800018310547 -12.673999786376953,75.39399719238281 -8.680999755859375,66.60900115966797 C-4.688000202178955,57.82400131225586 7.632999897003174,28.990999221801758 7.632999897003174,28.990999221801758z"></path></g></g><g clip-path="url(#__lottie_element_1046)" transform="matrix(0.9901266694068909,0.140175461769104,-0.140175461769104,0.9901266694068909,140.41815185546875,124.17498779296875)" opacity="1" style="display: none;"><g opacity="1" transform="matrix(1,0,0,1,0,0)"></g><g opacity="1" transform="matrix(1,0,0,1,0,0)"><path fill="rgb(220,226,241)" fill-opacity="1" d=" M72,63.5 C89.15899658203125,81.43900299072266 80.1780014038086,97.10900115966797 77.5,110.5 C74.5,125.5 78.46199798583984,136.76199340820312 88.5,139.5 C94,141 101,134 103.5,128 C106,122 126.5,71 128,63.5 C128.89199829101562,59.040000915527344 133.67300415039062,43.619998931884766 132.67300415039062,26.489999771118164 C131.99099731445312,14.810999870300293 126.5,8.5 119,0.5 C105.04399871826172,-14.38599967956543 76.5,-12.5 62.042999267578125,10.293000221252441 C50.95199966430664,27.780000686645508 67.01300048828125,58.2869987487793 72,63.5z"></path></g><g opacity="1" transform="matrix(1,0,0,1,92.98799896240234,28.988000869750977)"><path fill="rgb(220,226,241)" fill-opacity="1" d=" M0,-39.98849868774414 C22.069652557373047,-39.98849868774414 39.98849868774414,-22.069652557373047 39.98849868774414,0 C39.98849868774414,22.069652557373047 22.069652557373047,39.98849868774414 0,39.98849868774414 C-22.069652557373047,39.98849868774414 -39.98849868774414,22.069652557373047 -39.98849868774414,0 C-39.98849868774414,-22.069652557373047 -22.069652557373047,-39.98849868774414 0,-39.98849868774414z"></path></g><g opacity="1" transform="matrix(1,0,0,1,0,0)"><path fill="rgb(169,180,210)" fill-opacity="1" d=" M73.125,64.71399688720703 C73.125,64.71399688720703 83.39900207519531,76.64099884033203 82.21800231933594,87.91799926757812 C81.66500091552734,93.19999694824219 79.9229965209961,101 78.43900299072266,106.19400024414062 C76.95500183105469,111.38800048828125 76.27400207519531,119.05899810791016 76.27400207519531,119.05899810791016 C76.27400207519531,119.05899810791016 88.81300354003906,100.61900329589844 88.81300354003906,100.61900329589844 C88.81300354003906,100.61900329589844 90.1520004272461,76.19000244140625 90.1520004272461,76.19000244140625 C90.1520004272461,76.19000244140625 73.125,64.71399688720703 73.125,64.71399688720703z"></path></g></g><g clip-path="url(#__lottie_element_1043)" transform="matrix(1,0,0,1,136,137)" opacity="1" style="display: none;"><g opacity="1" transform="matrix(1,0,0,1,53.27899932861328,120.27899932861328)"><path fill="rgb(220,226,241)" fill-opacity="1" d="M0 0"></path></g><g opacity="1" transform="matrix(1,0,0,1,0,0)"><path fill="rgb(220,226,241)" fill-opacity="1" d=" M94.5,-28.5 C38,-51.5 8.5,-9 8.5,-9 C8.5,-9 1.5,3.5 9,16 C16.5,28.5 27,30 46,22 C65,14 110,23 105.5,34.5 C101,46 99.5,81.5 115.5,73 C131.5,64.5 151,-5.5 94.5,-28.5z"></path></g></g><g transform="matrix(0,0,0,0,187.5,189)" opacity="1" style="display: block;"><g opacity="1" transform="matrix(1,0,0,1,0,0)"><path fill="rgb(232,86,146)" fill-opacity="1" d=" M-4.998000144958496,-89.85900115966797 C-5.044000148773193,-90.75599670410156 -49.064998626708984,-47.42100143432617 -44.06100082397461,-15.859000205993652 C-39.89799880981445,10.39799976348877 -30.166000366210938,21.368999481201172 -16.110000610351562,34.13100051879883 C-3.871999979019165,45.242000579833984 0.5,49 0.5,49 C0.5,49 10.104000091552734,44.05699920654297 19.083999633789062,35.07699966430664 C32.39899826049805,21.761999130249023 46.84199905395508,12.618000030517578 46.41699981689453,-19.73900032043457 C45.93199920654297,-56.691001892089844 -5.0279998779296875,-90.25599670410156 -4.998000144958496,-89.85900115966797z"></path></g></g><g style="display: none;"><g><path></path></g><g><path></path></g></g><g style="display: none;"><g><path></path></g><g><path></path></g></g><g style="display: none;"><g><path></path></g><g><path></path></g></g><g style="display: none;"><g><path></path></g><g><path></path></g></g><g style="display: none;"><g><path></path></g><g><path></path></g></g><g style="display: none;"><g><path></path></g><g><path></path></g><g><path></path></g></g><g style="display: none;"><g><path></path></g><g><path></path></g></g><g transform="matrix(0,0,0,0,68,287)" opacity="1" style="display: block;"><g opacity="1" transform="matrix(1,0,0,1,-139.47000122070312,67.02999877929688)"><path fill="rgb(255,255,255)" fill-opacity="1" d=" M0,-8.530500411987305 C4.707983016967773,-8.530500411987305 8.530500411987305,-4.707983016967773 8.530500411987305,0 C8.530500411987305,4.707983016967773 4.707983016967773,8.530500411987305 0,8.530500411987305 C-4.707983016967773,8.530500411987305 -8.530500411987305,4.707983016967773 -8.530500411987305,0 C-8.530500411987305,-4.707983016967773 -4.707983016967773,-8.530500411987305 0,-8.530500411987305z"></path></g></g><g transform="matrix(0,0,0,0,53,297)" opacity="1" style="display: block;"><g opacity="1" transform="matrix(1,0,0,1,-139.47000122070312,67.02999877929688)"><path fill="rgb(255,255,255)" fill-opacity="1" d=" M0,-8.530500411987305 C4.707983016967773,-8.530500411987305 8.530500411987305,-4.707983016967773 8.530500411987305,0 C8.530500411987305,4.707983016967773 4.707983016967773,8.530500411987305 0,8.530500411987305 C-4.707983016967773,8.530500411987305 -8.530500411987305,4.707983016967773 -8.530500411987305,0 C-8.530500411987305,-4.707983016967773 -4.707983016967773,-8.530500411987305 0,-8.530500411987305z"></path></g></g><g transform="matrix(0,0,0,0,121,302)" opacity="1" style="display: block;"><g opacity="1" transform="matrix(1,0,0,1,-139.47000122070312,67.02999877929688)"><path fill="rgb(255,255,255)" fill-opacity="1" d=" M0,-8.530500411987305 C4.707983016967773,-8.530500411987305 8.530500411987305,-4.707983016967773 8.530500411987305,0 C8.530500411987305,4.707983016967773 4.707983016967773,8.530500411987305 0,8.530500411987305 C-4.707983016967773,8.530500411987305 -8.530500411987305,4.707983016967773 -8.530500411987305,0 C-8.530500411987305,-4.707983016967773 -4.707983016967773,-8.530500411987305 0,-8.530500411987305z"></path></g></g><g transform="matrix(0,0,0,0,152,317)" opacity="1" style="display: block;"><g opacity="1" transform="matrix(1,0,0,1,-139.47000122070312,67.02999877929688)"><path fill="rgb(255,255,255)" fill-opacity="1" d=" M0,-8.530500411987305 C4.707983016967773,-8.530500411987305 8.530500411987305,-4.707983016967773 8.530500411987305,0 C8.530500411987305,4.707983016967773 4.707983016967773,8.530500411987305 0,8.530500411987305 C-4.707983016967773,8.530500411987305 -8.530500411987305,4.707983016967773 -8.530500411987305,0 C-8.530500411987305,-4.707983016967773 -4.707983016967773,-8.530500411987305 0,-8.530500411987305z"></path></g></g><g transform="matrix(0,0,0,0,242,317)" opacity="1" style="display: block;"><g opacity="1" transform="matrix(1,0,0,1,-139.47000122070312,67.02999877929688)"><path fill="rgb(255,255,255)" fill-opacity="1" d=" M0,-8.530500411987305 C4.707983016967773,-8.530500411987305 8.530500411987305,-4.707983016967773 8.530500411987305,0 C8.530500411987305,4.707983016967773 4.707983016967773,8.530500411987305 0,8.530500411987305 C-4.707983016967773,8.530500411987305 -8.530500411987305,4.707983016967773 -8.530500411987305,0 C-8.530500411987305,-4.707983016967773 -4.707983016967773,-8.530500411987305 0,-8.530500411987305z"></path></g></g><g transform="matrix(0,0,0,0,312,286)" opacity="1" style="display: block;"><g opacity="1" transform="matrix(1,0,0,1,-139.47000122070312,67.02999877929688)"><path fill="rgb(255,255,255)" fill-opacity="1" d=" M0,-8.530500411987305 C4.707983016967773,-8.530500411987305 8.530500411987305,-4.707983016967773 8.530500411987305,0 C8.530500411987305,4.707983016967773 4.707983016967773,8.530500411987305 0,8.530500411987305 C-4.707983016967773,8.530500411987305 -8.530500411987305,4.707983016967773 -8.530500411987305,0 C-8.530500411987305,-4.707983016967773 -4.707983016967773,-8.530500411987305 0,-8.530500411987305z"></path></g></g><g transform="matrix(0,0,0,0,257,293)" opacity="1" style="display: block;"><g opacity="1" transform="matrix(1,0,0,1,-139.47000122070312,67.02999877929688)"><path fill="rgb(255,255,255)" fill-opacity="1" d=" M0,-8.530500411987305 C4.707983016967773,-8.530500411987305 8.530500411987305,-4.707983016967773 8.530500411987305,0 C8.530500411987305,4.707983016967773 4.707983016967773,8.530500411987305 0,8.530500411987305 C-4.707983016967773,8.530500411987305 -8.530500411987305,4.707983016967773 -8.530500411987305,0 C-8.530500411987305,-4.707983016967773 -4.707983016967773,-8.530500411987305 0,-8.530500411987305z"></path></g></g><g transform="matrix(0,0,0,0,187.5,189)" opacity="1" style="display: block;"><g opacity="1" transform="matrix(1,0,0,1,-23.924999237060547,11.154000282287598)"><path fill="rgb(194,47,108)" fill-opacity="1" d=" M-5,4.3454999923706055 C-2.508171558380127,4.3454999923706055 -0.4850001335144043,6.43118143081665 -0.4850001335144043,9 C-0.4850001335144043,11.568818092346191 -2.508171558380127,13.654500007629395 -5,13.654500007629395 C-7.491828441619873,13.654500007629395 -9.514999389648438,11.568818092346191 -9.514999389648438,9 C-9.514999389648438,6.43118143081665 -7.491828441619873,4.3454999923706055 -5,4.3454999923706055z"></path></g><g opacity="1" transform="matrix(1,0,0,1,-20.81999969482422,38.145999908447266)"><path fill="rgb(194,47,108)" fill-opacity="1" d=" M0,-7.145500183105469 C3.7642338275909424,-7.145500183105469 6.820499897003174,-3.943601608276367 6.820499897003174,0 C6.820499897003174,3.943601608276367 3.7642338275909424,7.145500183105469 0,7.145500183105469 C-3.7642338275909424,7.145500183105469 -6.820499897003174,3.943601608276367 -6.820499897003174,0 C-6.820499897003174,-3.943601608276367 -3.7642338275909424,-7.145500183105469 0,-7.145500183105469z"></path></g><g opacity="1" transform="matrix(1,0,0,1,-43.50199890136719,22.464000701904297)"><path fill="rgb(194,47,108)" fill-opacity="1" d=" M0,-3.9639999866485596 C1.9327538013458252,-3.9639999866485596 3.502000093460083,-2.1877315044403076 3.502000093460083,0 C3.502000093460083,2.1877315044403076 1.9327538013458252,3.9639999866485596 0,3.9639999866485596 C-1.9327538013458252,3.9639999866485596 -3.502000093460083,2.1877315044403076 -3.502000093460083,0 C-3.502000093460083,-2.1877315044403076 -1.9327538013458252,-3.9639999866485596 0,-3.9639999866485596z"></path></g></g><g transform="matrix(0,0,0,0,187.5,189)" opacity="1" style="display: block;"><g opacity="1" transform="matrix(1,0,0,1,2.6679999828338623,44.327999114990234)"><path fill="rgb(195,47,108)" fill-opacity="1" d=" M0,-6.328000068664551 C3.4946305751800537,-6.328000068664551 6.331999778747559,-3.4924232959747314 6.331999778747559,0 C6.331999778747559,3.4924232959747314 3.4946305751800537,6.328000068664551 0,6.328000068664551 C-3.4946305751800537,6.328000068664551 -6.331999778747559,3.4924232959747314 -6.331999778747559,0 C-6.331999778747559,-3.4924232959747314 -3.4946305751800537,-6.328000068664551 0,-6.328000068664551z"></path></g></g><g transform="matrix(0,0,0,0,187.5,189)" opacity="1" style="display: block;"><g opacity="1" transform="matrix(1,0,0,1,2.6679999828338623,44.327999114990234)"><path fill="rgb(195,47,108)" fill-opacity="1" d=" M0,-6.328000068664551 C3.4946305751800537,-6.328000068664551 6.331999778747559,-3.4924232959747314 6.331999778747559,0 C6.331999778747559,3.4924232959747314 3.4946305751800537,6.328000068664551 0,6.328000068664551 C-3.4946305751800537,6.328000068664551 -6.331999778747559,3.4924232959747314 -6.331999778747559,0 C-6.331999778747559,-3.4924232959747314 -3.4946305751800537,-6.328000068664551 0,-6.328000068664551z"></path></g></g><g transform="matrix(0,0,0,0,187.5,189)" opacity="1" style="display: block;"><g opacity="1" transform="matrix(1,0,0,1,2.6679999828338623,44.327999114990234)"><path fill="rgb(195,47,108)" fill-opacity="1" d=" M0,-6.328000068664551 C3.4946305751800537,-6.328000068664551 6.331999778747559,-3.4924232959747314 6.331999778747559,0 C6.331999778747559,3.4924232959747314 3.4946305751800537,6.328000068664551 0,6.328000068664551 C-3.4946305751800537,6.328000068664551 -6.331999778747559,3.4924232959747314 -6.331999778747559,0 C-6.331999778747559,-3.4924232959747314 -3.4946305751800537,-6.328000068664551 0,-6.328000068664551z"></path></g></g><g transform="matrix(0,0,0,0,187.5,189)" opacity="1" style="display: block;"><g opacity="1" transform="matrix(1,0,0,1,2.6679999828338623,44.327999114990234)"><path fill="rgb(195,47,108)" fill-opacity="1" d=" M0,-6.328000068664551 C3.4946305751800537,-6.328000068664551 6.331999778747559,-3.4924232959747314 6.331999778747559,0 C6.331999778747559,3.4924232959747314 3.4946305751800537,6.328000068664551 0,6.328000068664551 C-3.4946305751800537,6.328000068664551 -6.331999778747559,3.4924232959747314 -6.331999778747559,0 C-6.331999778747559,-3.4924232959747314 -3.4946305751800537,-6.328000068664551 0,-6.328000068664551z"></path></g></g><g transform="matrix(0,0,0,0,187.5,189)" opacity="1" style="display: block;"><g opacity="1" transform="matrix(1,0,0,1,2.6679999828338623,44.327999114990234)"><path fill="rgb(195,47,108)" fill-opacity="1" d=" M0,-6.328000068664551 C3.4946305751800537,-6.328000068664551 6.331999778747559,-3.4924232959747314 6.331999778747559,0 C6.331999778747559,3.4924232959747314 3.4946305751800537,6.328000068664551 0,6.328000068664551 C-3.4946305751800537,6.328000068664551 -6.331999778747559,3.4924232959747314 -6.331999778747559,0 C-6.331999778747559,-3.4924232959747314 -3.4946305751800537,-6.328000068664551 0,-6.328000068664551z"></path></g></g><g transform="matrix(0,0,0,0,187.5,189)" opacity="1" style="display: block;"><g opacity="1" transform="matrix(1,0,0,1,2.6679999828338623,44.327999114990234)"><path fill="rgb(195,47,108)" fill-opacity="1" d=" M0,-6.328000068664551 C3.4946305751800537,-6.328000068664551 6.331999778747559,-3.4924232959747314 6.331999778747559,0 C6.331999778747559,3.4924232959747314 3.4946305751800537,6.328000068664551 0,6.328000068664551 C-3.4946305751800537,6.328000068664551 -6.331999778747559,3.4924232959747314 -6.331999778747559,0 C-6.331999778747559,-3.4924232959747314 -3.4946305751800537,-6.328000068664551 0,-6.328000068664551z"></path></g></g><g transform="matrix(0,0,0,0,187.5,189)" opacity="1" style="display: block;"><g opacity="1" transform="matrix(1,0,0,1,2.6679999828338623,44.327999114990234)"><path fill="rgb(195,47,108)" fill-opacity="1" d=" M0,-6.328000068664551 C3.4946305751800537,-6.328000068664551 6.331999778747559,-3.4924232959747314 6.331999778747559,0 C6.331999778747559,3.4924232959747314 3.4946305751800537,6.328000068664551 0,6.328000068664551 C-3.4946305751800537,6.328000068664551 -6.331999778747559,3.4924232959747314 -6.331999778747559,0 C-6.331999778747559,-3.4924232959747314 -3.4946305751800537,-6.328000068664551 0,-6.328000068664551z"></path></g></g><g transform="matrix(0,0,0,0,187.5,189)" opacity="1" style="display: block;"><g opacity="1" transform="matrix(1,0,0,1,2.6679999828338623,44.327999114990234)"><path fill="rgb(195,47,108)" fill-opacity="1" d=" M0,-6.328000068664551 C3.4946305751800537,-6.328000068664551 6.331999778747559,-3.4924232959747314 6.331999778747559,0 C6.331999778747559,3.4924232959747314 3.4946305751800537,6.328000068664551 0,6.328000068664551 C-3.4946305751800537,6.328000068664551 -6.331999778747559,3.4924232959747314 -6.331999778747559,0 C-6.331999778747559,-3.4924232959747314 -3.4946305751800537,-6.328000068664551 0,-6.328000068664551z"></path></g></g><g transform="matrix(0,0,0,0,187.5,189)" opacity="1" style="display: block;"><g opacity="1" transform="matrix(1,0,0,1,2.6679999828338623,44.327999114990234)"><path fill="rgb(195,47,108)" fill-opacity="1" d=" M0,-6.328000068664551 C3.4946305751800537,-6.328000068664551 6.331999778747559,-3.4924232959747314 6.331999778747559,0 C6.331999778747559,3.4924232959747314 3.4946305751800537,6.328000068664551 0,6.328000068664551 C-3.4946305751800537,6.328000068664551 -6.331999778747559,3.4924232959747314 -6.331999778747559,0 C-6.331999778747559,-3.4924232959747314 -3.4946305751800537,-6.328000068664551 0,-6.328000068664551z"></path></g></g><g transform="matrix(0,0,0,0,187.5,189)" opacity="1" style="display: block;"><g opacity="1" transform="matrix(1,0,0,1,2.6679999828338623,44.327999114990234)"><path fill="rgb(195,47,108)" fill-opacity="1" d=" M0,-6.328000068664551 C3.4946305751800537,-6.328000068664551 6.331999778747559,-3.4924232959747314 6.331999778747559,0 C6.331999778747559,3.4924232959747314 3.4946305751800537,6.328000068664551 0,6.328000068664551 C-3.4946305751800537,6.328000068664551 -6.331999778747559,3.4924232959747314 -6.331999778747559,0 C-6.331999778747559,-3.4924232959747314 -3.4946305751800537,-6.328000068664551 0,-6.328000068664551z"></path></g></g><g transform="matrix(0,0,0,0,187.5,189)" opacity="1" style="display: block;"><g opacity="1" transform="matrix(1,0,0,1,2.6679999828338623,44.327999114990234)"><path fill="rgb(195,47,108)" fill-opacity="1" d=" M0,-6.328000068664551 C3.4946305751800537,-6.328000068664551 6.331999778747559,-3.4924232959747314 6.331999778747559,0 C6.331999778747559,3.4924232959747314 3.4946305751800537,6.328000068664551 0,6.328000068664551 C-3.4946305751800537,6.328000068664551 -6.331999778747559,3.4924232959747314 -6.331999778747559,0 C-6.331999778747559,-3.4924232959747314 -3.4946305751800537,-6.328000068664551 0,-6.328000068664551z"></path></g></g><g transform="matrix(0,0,0,0,187.5,189)" opacity="1" style="display: block;"><g opacity="1" transform="matrix(1,0,0,1,2.6679999828338623,44.327999114990234)"><path fill="rgb(195,47,108)" fill-opacity="1" d=" M0,-6.328000068664551 C3.4946305751800537,-6.328000068664551 6.331999778747559,-3.4924232959747314 6.331999778747559,0 C6.331999778747559,3.4924232959747314 3.4946305751800537,6.328000068664551 0,6.328000068664551 C-3.4946305751800537,6.328000068664551 -6.331999778747559,3.4924232959747314 -6.331999778747559,0 C-6.331999778747559,-3.4924232959747314 -3.4946305751800537,-6.328000068664551 0,-6.328000068664551z"></path></g></g><g transform="matrix(0,0,0,0,187.5,189)" opacity="1" style="display: block;"><g opacity="1" transform="matrix(1,0,0,1,2.6679999828338623,44.327999114990234)"><path fill="rgb(195,47,108)" fill-opacity="1" d=" M0,-6.328000068664551 C3.4946305751800537,-6.328000068664551 6.331999778747559,-3.4924232959747314 6.331999778747559,0 C6.331999778747559,3.4924232959747314 3.4946305751800537,6.328000068664551 0,6.328000068664551 C-3.4946305751800537,6.328000068664551 -6.331999778747559,3.4924232959747314 -6.331999778747559,0 C-6.331999778747559,-3.4924232959747314 -3.4946305751800537,-6.328000068664551 0,-6.328000068664551z"></path></g></g><g transform="matrix(0,0,0,0,187.5,189)" opacity="1" style="display: block;"><g opacity="1" transform="matrix(1,0,0,1,2.6679999828338623,44.327999114990234)"><path fill="rgb(195,47,108)" fill-opacity="1" d=" M0,-6.328000068664551 C3.4946305751800537,-6.328000068664551 6.331999778747559,-3.4924232959747314 6.331999778747559,0 C6.331999778747559,3.4924232959747314 3.4946305751800537,6.328000068664551 0,6.328000068664551 C-3.4946305751800537,6.328000068664551 -6.331999778747559,3.4924232959747314 -6.331999778747559,0 C-6.331999778747559,-3.4924232959747314 -3.4946305751800537,-6.328000068664551 0,-6.328000068664551z"></path></g></g><g transform="matrix(0,0,0,0,187.5,189)" opacity="1" style="display: block;"><g opacity="1" transform="matrix(1,0,0,1,2.6679999828338623,44.327999114990234)"><path fill="rgb(195,47,108)" fill-opacity="1" d=" M0,-6.328000068664551 C3.4946305751800537,-6.328000068664551 6.331999778747559,-3.4924232959747314 6.331999778747559,0 C6.331999778747559,3.4924232959747314 3.4946305751800537,6.328000068664551 0,6.328000068664551 C-3.4946305751800537,6.328000068664551 -6.331999778747559,3.4924232959747314 -6.331999778747559,0 C-6.331999778747559,-3.4924232959747314 -3.4946305751800537,-6.328000068664551 0,-6.328000068664551z"></path></g></g><g transform="matrix(0,0,0,0,187.5,189)" opacity="1" style="display: block;"><g opacity="1" transform="matrix(1,0,0,1,2.6679999828338623,44.327999114990234)"><path fill="rgb(195,47,108)" fill-opacity="1" d=" M0,-6.328000068664551 C3.4946305751800537,-6.328000068664551 6.331999778747559,-3.4924232959747314 6.331999778747559,0 C6.331999778747559,3.4924232959747314 3.4946305751800537,6.328000068664551 0,6.328000068664551 C-3.4946305751800537,6.328000068664551 -6.331999778747559,3.4924232959747314 -6.331999778747559,0 C-6.331999778747559,-3.4924232959747314 -3.4946305751800537,-6.328000068664551 0,-6.328000068664551z"></path></g></g><g transform="matrix(0,0,0,0,187.5,189)" opacity="1" style="display: block;"><g opacity="1" transform="matrix(1,0,0,1,2.6679999828338623,44.327999114990234)"><path fill="rgb(195,47,108)" fill-opacity="1" d=" M0,-6.328000068664551 C3.4946305751800537,-6.328000068664551 6.331999778747559,-3.4924232959747314 6.331999778747559,0 C6.331999778747559,3.4924232959747314 3.4946305751800537,6.328000068664551 0,6.328000068664551 C-3.4946305751800537,6.328000068664551 -6.331999778747559,3.4924232959747314 -6.331999778747559,0 C-6.331999778747559,-3.4924232959747314 -3.4946305751800537,-6.328000068664551 0,-6.328000068664551z"></path></g></g><g transform="matrix(0,0,0,0,187.5,189)" opacity="1" style="display: block;"><g opacity="1" transform="matrix(1,0,0,1,2.6679999828338623,44.327999114990234)"><path fill="rgb(195,47,108)" fill-opacity="1" d=" M0,-6.328000068664551 C3.4946305751800537,-6.328000068664551 6.331999778747559,-3.4924232959747314 6.331999778747559,0 C6.331999778747559,3.4924232959747314 3.4946305751800537,6.328000068664551 0,6.328000068664551 C-3.4946305751800537,6.328000068664551 -6.331999778747559,3.4924232959747314 -6.331999778747559,0 C-6.331999778747559,-3.4924232959747314 -3.4946305751800537,-6.328000068664551 0,-6.328000068664551z"></path></g></g><g transform="matrix(0,0,0,0,187.5,189)" opacity="1" style="display: block;"><g opacity="1" transform="matrix(1,0,0,1,2.6679999828338623,44.327999114990234)"><path fill="rgb(195,47,108)" fill-opacity="1" d=" M0,-6.328000068664551 C3.4946305751800537,-6.328000068664551 6.331999778747559,-3.4924232959747314 6.331999778747559,0 C6.331999778747559,3.4924232959747314 3.4946305751800537,6.328000068664551 0,6.328000068664551 C-3.4946305751800537,6.328000068664551 -6.331999778747559,3.4924232959747314 -6.331999778747559,0 C-6.331999778747559,-3.4924232959747314 -3.4946305751800537,-6.328000068664551 0,-6.328000068664551z"></path></g></g><g transform="matrix(0,0,0,0,187.5,189)" opacity="1" style="display: block;"><g opacity="1" transform="matrix(1,0,0,1,2.6679999828338623,44.327999114990234)"><path fill="rgb(195,47,108)" fill-opacity="1" d=" M0,-6.328000068664551 C3.4946305751800537,-6.328000068664551 6.331999778747559,-3.4924232959747314 6.331999778747559,0 C6.331999778747559,3.4924232959747314 3.4946305751800537,6.328000068664551 0,6.328000068664551 C-3.4946305751800537,6.328000068664551 -6.331999778747559,3.4924232959747314 -6.331999778747559,0 C-6.331999778747559,-3.4924232959747314 -3.4946305751800537,-6.328000068664551 0,-6.328000068664551z"></path></g></g><g transform="matrix(0,0,0,0,187.5,189)" opacity="1" style="display: block;"><g opacity="1" transform="matrix(1,0,0,1,2.6679999828338623,44.327999114990234)"><path fill="rgb(195,47,108)" fill-opacity="1" d=" M0,-6.328000068664551 C3.4946305751800537,-6.328000068664551 6.331999778747559,-3.4924232959747314 6.331999778747559,0 C6.331999778747559,3.4924232959747314 3.4946305751800537,6.328000068664551 0,6.328000068664551 C-3.4946305751800537,6.328000068664551 -6.331999778747559,3.4924232959747314 -6.331999778747559,0 C-6.331999778747559,-3.4924232959747314 -3.4946305751800537,-6.328000068664551 0,-6.328000068664551z"></path></g></g><g transform="matrix(0,0,0,0,187.5,189)" opacity="1" style="display: block;"><g opacity="1" transform="matrix(1,0,0,1,2.6679999828338623,44.327999114990234)"><path fill="rgb(195,47,108)" fill-opacity="1" d=" M0,-6.328000068664551 C3.4946305751800537,-6.328000068664551 6.331999778747559,-3.4924232959747314 6.331999778747559,0 C6.331999778747559,3.4924232959747314 3.4946305751800537,6.328000068664551 0,6.328000068664551 C-3.4946305751800537,6.328000068664551 -6.331999778747559,3.4924232959747314 -6.331999778747559,0 C-6.331999778747559,-3.4924232959747314 -3.4946305751800537,-6.328000068664551 0,-6.328000068664551z"></path></g></g><g transform="matrix(0,0,0,0,187.5,189)" opacity="1" style="display: block;"><g opacity="1" transform="matrix(1,0,0,1,2.6679999828338623,44.327999114990234)"><path fill="rgb(195,47,108)" fill-opacity="1" d=" M0,-6.328000068664551 C3.4946305751800537,-6.328000068664551 6.331999778747559,-3.4924232959747314 6.331999778747559,0 C6.331999778747559,3.4924232959747314 3.4946305751800537,6.328000068664551 0,6.328000068664551 C-3.4946305751800537,6.328000068664551 -6.331999778747559,3.4924232959747314 -6.331999778747559,0 C-6.331999778747559,-3.4924232959747314 -3.4946305751800537,-6.328000068664551 0,-6.328000068664551z"></path></g></g><g transform="matrix(0,0,0,0,187.5,169)" opacity="1" style="display: block;"><g opacity="1" transform="matrix(1,0,0,1,2.6679999828338623,44.327999114990234)"><path fill="rgb(195,47,108)" fill-opacity="1" d=" M0,-6.328000068664551 C3.4946305751800537,-6.328000068664551 6.331999778747559,-3.4924232959747314 6.331999778747559,0 C6.331999778747559,3.4924232959747314 3.4946305751800537,6.328000068664551 0,6.328000068664551 C-3.4946305751800537,6.328000068664551 -6.331999778747559,3.4924232959747314 -6.331999778747559,0 C-6.331999778747559,-3.4924232959747314 -3.4946305751800537,-6.328000068664551 0,-6.328000068664551z"></path></g></g><g transform="matrix(0,0,0,0,187.5,169)" opacity="1" style="display: block;"><g opacity="1" transform="matrix(1,0,0,1,2.6679999828338623,44.327999114990234)"><path fill="rgb(195,47,108)" fill-opacity="1" d=" M0,-6.328000068664551 C3.4946305751800537,-6.328000068664551 6.331999778747559,-3.4924232959747314 6.331999778747559,0 C6.331999778747559,3.4924232959747314 3.4946305751800537,6.328000068664551 0,6.328000068664551 C-3.4946305751800537,6.328000068664551 -6.331999778747559,3.4924232959747314 -6.331999778747559,0 C-6.331999778747559,-3.4924232959747314 -3.4946305751800537,-6.328000068664551 0,-6.328000068664551z"></path></g></g><g transform="matrix(0,0,0,0,187.5,169)" opacity="1" style="display: block;"><g opacity="1" transform="matrix(1,0,0,1,2.6679999828338623,44.327999114990234)"><path fill="rgb(195,47,108)" fill-opacity="1" d=" M0,-6.328000068664551 C3.4946305751800537,-6.328000068664551 6.331999778747559,-3.4924232959747314 6.331999778747559,0 C6.331999778747559,3.4924232959747314 3.4946305751800537,6.328000068664551 0,6.328000068664551 C-3.4946305751800537,6.328000068664551 -6.331999778747559,3.4924232959747314 -6.331999778747559,0 C-6.331999778747559,-3.4924232959747314 -3.4946305751800537,-6.328000068664551 0,-6.328000068664551z"></path></g></g><g transform="matrix(0,0,0,0,187.5,169)" opacity="1" style="display: block;"><g opacity="1" transform="matrix(1,0,0,1,2.6679999828338623,44.327999114990234)"><path fill="rgb(195,47,108)" fill-opacity="1" d=" M0,-6.328000068664551 C3.4946305751800537,-6.328000068664551 6.331999778747559,-3.4924232959747314 6.331999778747559,0 C6.331999778747559,3.4924232959747314 3.4946305751800537,6.328000068664551 0,6.328000068664551 C-3.4946305751800537,6.328000068664551 -6.331999778747559,3.4924232959747314 -6.331999778747559,0 C-6.331999778747559,-3.4924232959747314 -3.4946305751800537,-6.328000068664551 0,-6.328000068664551z"></path></g></g><g transform="matrix(0,0,0,0,187.5,169)" opacity="1" style="display: block;"><g opacity="1" transform="matrix(1,0,0,1,2.6679999828338623,44.327999114990234)"><path fill="rgb(195,47,108)" fill-opacity="1" d=" M0,-6.328000068664551 C3.4946305751800537,-6.328000068664551 6.331999778747559,-3.4924232959747314 6.331999778747559,0 C6.331999778747559,3.4924232959747314 3.4946305751800537,6.328000068664551 0,6.328000068664551 C-3.4946305751800537,6.328000068664551 -6.331999778747559,3.4924232959747314 -6.331999778747559,0 C-6.331999778747559,-3.4924232959747314 -3.4946305751800537,-6.328000068664551 0,-6.328000068664551z"></path></g></g><g filter="url(#__lottie_element_909)" transform="matrix(0,0,0,0,187.25,169.625)" opacity="1" style="display: block;"><g opacity="1" transform="matrix(1,0,0,1,-3.7339999675750732,-2.2339999675750732)"><path fill="rgb(112,223,224)" fill-opacity="1" d=" M0,-30.265499114990234 C16.703529357910156,-30.265499114990234 30.265499114990234,-16.703529357910156 30.265499114990234,0 C30.265499114990234,16.703529357910156 16.703529357910156,30.265499114990234 0,30.265499114990234 C-16.703529357910156,30.265499114990234 -30.265499114990234,16.703529357910156 -30.265499114990234,0 C-30.265499114990234,-16.703529357910156 -16.703529357910156,-30.265499114990234 0,-30.265499114990234z"></path></g><g opacity="1" transform="matrix(1,0,0,1,-11.819000244140625,18.01099967956543)"><path fill="rgb(112,223,224)" fill-opacity="1" d=" M0,-2.560499906539917 C1.325939655303955,-2.560499906539917 2.4024999141693115,-1.4131399393081665 2.4024999141693115,0 C2.4024999141693115,1.4131399393081665 1.325939655303955,2.560499906539917 0,2.560499906539917 C-1.325939655303955,2.560499906539917 -2.4024999141693115,1.4131399393081665 -2.4024999141693115,0 C-2.4024999141693115,-1.4131399393081665 -1.325939655303955,-2.560499906539917 0,-2.560499906539917z"></path></g><g opacity="1" transform="matrix(1,0,0,1,-2.568000078201294,13.166999816894531)"><path fill="rgb(112,223,224)" fill-opacity="1" d=" M0,-2.2130000591278076 C1.1711317300796509,-2.2130000591278076 2.121999979019165,-1.2213547229766846 2.121999979019165,0 C2.121999979019165,1.2213547229766846 1.1711317300796509,2.2130000591278076 0,2.2130000591278076 C-1.1711317300796509,2.2130000591278076 -2.121999979019165,1.2213547229766846 -2.121999979019165,0 C-2.121999979019165,-1.2213547229766846 -1.1711317300796509,-2.2130000591278076 0,-2.2130000591278076z"></path></g><g opacity="1" transform="matrix(1,0,0,1,7.783999919891357,4.984000205993652)"><path fill="rgb(112,223,224)" fill-opacity="1" d=" M0,-2.4820001125335693 C1.3267676830291748,-2.4820001125335693 2.4040000438690186,-1.3698158264160156 2.4040000438690186,0 C2.4040000438690186,1.3698158264160156 1.3267676830291748,2.4820001125335693 0,2.4820001125335693 C-1.3267676830291748,2.4820001125335693 -2.4040000438690186,1.3698158264160156 -2.4040000438690186,0 C-2.4040000438690186,-1.3698158264160156 -1.3267676830291748,-2.4820001125335693 0,-2.4820001125335693z"></path></g><g opacity="1" transform="matrix(1,0,0,1,9.928999900817871,13.583000183105469)"><path fill="rgb(112,223,224)" fill-opacity="1" d=" M0,-3.305999994277954 C1.8563157320022583,-3.305999994277954 3.3635001182556152,-1.8245813846588135 3.3635001182556152,0 C3.3635001182556152,1.8245813846588135 1.8563157320022583,3.305999994277954 0,3.305999994277954 C-1.8563157320022583,3.305999994277954 -3.3635001182556152,1.8245813846588135 -3.3635001182556152,0 C-3.3635001182556152,-1.8245813846588135 -1.8563157320022583,-3.305999994277954 0,-3.305999994277954z"></path></g><g opacity="1" transform="matrix(1,0,0,1,-9.397000312805176,2.4170000553131104)"><path fill="rgb(112,223,224)" fill-opacity="1" d=" M0,-4.230000019073486 C2.1662075519561768,-4.230000019073486 3.924999952316284,-2.3345370292663574 3.924999952316284,0 C3.924999952316284,2.3345370292663574 2.1662075519561768,4.230000019073486 0,4.230000019073486 C-2.1662075519561768,4.230000019073486 -3.924999952316284,2.3345370292663574 -3.924999952316284,0 C-3.924999952316284,-2.3345370292663574 -2.1662075519561768,-4.230000019073486 0,-4.230000019073486z"></path></g><g opacity="1" transform="matrix(1,0,0,1,13.21399974822998,-9.02400016784668)"><path fill="rgb(112,223,224)" fill-opacity="1" d=" M0,-2.500999927520752 C1.445426106452942,-2.500999927520752 2.61899995803833,-1.380301833152771 2.61899995803833,0 C2.61899995803833,1.380301833152771 1.445426106452942,2.500999927520752 0,2.500999927520752 C-1.445426106452942,2.500999927520752 -2.61899995803833,1.380301833152771 -2.61899995803833,0 C-2.61899995803833,-1.380301833152771 -1.445426106452942,-2.500999927520752 0,-2.500999927520752z"></path></g><g opacity="1" transform="matrix(1,0,0,1,18.417999267578125,2.7360000610351562)"><path fill="rgb(112,223,224)" fill-opacity="1" d=" M0,-3.7230000495910645 C1.9352374076843262,-3.7230000495910645 3.506500005722046,-2.0547237396240234 3.506500005722046,0 C3.506500005722046,2.0547237396240234 1.9352374076843262,3.7230000495910645 0,3.7230000495910645 C-1.9352374076843262,3.7230000495910645 -3.506500005722046,2.0547237396240234 -3.506500005722046,0 C-3.506500005722046,-2.0547237396240234 -1.9352374076843262,-3.7230000495910645 0,-3.7230000495910645z"></path></g><g opacity="1" transform="matrix(1,0,0,1,0.10899999737739563,22.354999542236328)"><path fill="rgb(112,223,224)" fill-opacity="1" d=" M0,-2.0864999294281006 C1.2219065427780151,-2.0864999294281006 2.2139999866485596,-1.1515393257141113 2.2139999866485596,0 C2.2139999866485596,1.1515393257141113 1.2219065427780151,2.0864999294281006 0,2.0864999294281006 C-1.2219065427780151,2.0864999294281006 -2.2139999866485596,1.1515393257141113 -2.2139999866485596,0 C-2.2139999866485596,-1.1515393257141113 -1.2219065427780151,-2.0864999294281006 0,-2.0864999294281006z"></path></g><g opacity="1" transform="matrix(1,0,0,1,-18.996999740600586,10.678999900817871)"><path fill="rgb(112,223,224)" fill-opacity="1" d=" M0,-2.253499984741211 C1.2461901903152466,-2.253499984741211 2.257999897003174,-1.2437065839767456 2.257999897003174,0 C2.257999897003174,1.2437065839767456 1.2461901903152466,2.253499984741211 0,2.253499984741211 C-1.2461901903152466,2.253499984741211 -2.257999897003174,1.2437065839767456 -2.257999897003174,0 C-2.257999897003174,-1.2437065839767456 -1.2461901903152466,-2.253499984741211 0,-2.253499984741211z"></path></g></g><g style="mix-blend-mode: screen; display: none;"><g><path></path></g></g></g></svg>
