<?xml version="1.0" encoding="UTF-8"?>
<svg width="22px" height="22px" viewBox="0 0 22 22" version="1.1" xmlns="http://www.w3.org/2000/svg" xmlns:xlink="http://www.w3.org/1999/xlink">
    <!-- Generator: Sketch 53.2 (72643) - https://sketchapp.com -->
    <title>scb-icon-learn</title>
    <desc>Created with Sketch.</desc>
    <g id="scb-icon-learn" stroke="none" stroke-width="1" fill="none" fill-rule="evenodd">
        <path d="M21.6786235,5.56807104 C21.104962,6.6152355 20.6470201,7.72912615 20.3164672,8.88109133 C19.8965999,10.3443943 19.7297899,11.6279733 19.0404835,13.0008013 C18.8593862,13.3615518 18.6456003,13.8676289 18.4825305,14.2389513 C17.9869629,15.3667848 16.9464579,17.7958171 15.5505656,18.0499282 C14.5388596,18.2334061 14.2384522,17.2317472 14.4391477,16.4038369 C14.5653398,15.8831275 14.8904321,15.4174231 15.1211235,14.9439813 C15.3414921,14.4917601 15.4104602,14.141505 15.4527985,13.6184208 C15.4907982,13.1498053 15.4635701,12.6804237 15.5859472,12.2219972 C15.7233597,11.7070334 15.9944445,11.5386475 15.5357546,11.1739134 C14.1060515,10.0370402 11.7256065,10.5349202 10.9335212,12.1933455 C10.6769481,12.7306024 10.4871738,13.2339216 10.2326951,13.7749324 C9.94971669,14.3763873 10.0976763,14.6101205 10.4182805,15.202076 C10.7858608,15.8808292 11.4703799,16.6852973 11.6769848,17.4221198 C11.7770708,17.7790398 11.7042878,18.7435435 11.3687979,18.943339 C10.9814697,19.1739312 10.3722769,18.640275 10.0952827,18.4240086 C9.0570966,17.6134118 8.12311064,16.4452056 7.3474819,15.3407378 C6.95738605,14.7851714 6.92432327,14.5714331 7.07086168,13.9593295 C7.33192295,12.8690344 7.97178486,11.944214 8.26882621,10.9076982 C7.77759717,11.0331832 7.25854154,11.5342042 6.85266233,11.859638 C6.00282935,12.5411491 5.26377911,13.3586406 4.4268122,14.0276645 C3.82539884,14.5083075 3.46402721,15.2681127 2.60865884,15.2046041 C1.70302308,15.1373417 0.580085613,15.0011314 1.44009175,13.8940589 C2.1061346,13.0367308 2.83127154,12.2383915 3.52162526,11.3983003 C3.97096481,10.8516206 4.46585918,10.3443943 4.98828093,9.87102909 C5.26796806,9.61753086 6.40721251,8.92590743 6.38350007,8.59526423 C5.52012782,8.53236848 4.6296022,9.45228588 3.96236251,9.91347031 C3.32788638,10.3520552 2.53116329,10.9390311 1.78006982,11.0073661 C1.32541928,11.0487348 0.242202017,10.7801447 0.0488371508,10.3139807 C-0.340361068,9.37537073 1.70818447,8.17690406 2.24451951,7.67956032 C2.69632755,7.26058728 2.92312921,6.98747723 3.49566873,6.70908117 C5.07355596,5.94161511 6.57499487,4.77317906 8.01457198,3.76286339 C8.79850382,3.21258302 9.69882859,2.88722583 10.5053508,2.37065329 C10.9367377,2.09424906 11.4373919,1.91130746 11.9201683,1.75019935 C13.6861842,1.16100175 15.4527237,0.60758043 17.2443221,0.0916207651 C18.113903,-0.158889718 19.0472905,0.1139139 19.6611959,0.792437248 L21.3681177,2.67907996 C22.0767233,3.46232742 22.1984272,4.62180025 21.6872258,5.55244286 C21.6843833,5.55765225 21.681466,5.56286165 21.6786235,5.56807104 Z M14.6582101,18.7015915 C14.9231695,19.4934392 15.291023,20.844892 14.6184257,21.5598813 C14.0028796,22.2142891 12.67889,22.1209157 12.2221783,21.399495 C11.9156169,20.9153985 11.9914494,20.4896602 12.0687966,19.9774564 C12.1383687,19.5166237 12.1273623,18.9659907 12.3931296,18.5412846 C12.8783165,17.7661108 14.3837589,17.8270099 14.6582101,18.7015915 Z" id="Combined-Shape-Copy" fill="#2B3648"></path>
    </g>
</svg>